<svg xmlns="http://www.w3.org/2000/svg" viewBox="0 0 375 263.03"><defs><style>.cls-1{fill:none;stroke:#000;stroke-miterlimit:10;}</style></defs><title>Untitled-1</title><g id="Layer_2" data-name="Layer 2"><polygon class="cls-1" points="208.5 102.53 182.5 109.53 160.5 121.53 153.5 133.53 154.5 180.53 165.5 197.53 186.5 214.53 213.5 222.53 245.5 222.53 274.5 214.53 293.5 204.53 300.5 185.53 304.5 146.53 298.5 124.53 262.5 106.53 208.5 102.53"/><path class="cls-1" d="M29.5,41.5c3-1,134-36,134-36l45,21,1,42-76-7-28,59h-4l-2,28-24,8-41-31Z" transform="translate(-24 -4.97)"/></g><g id="Layer_3" data-name="Layer 3"><path class="cls-1" d="M398.5,163.5c0,57.44-83.72,104-187,104s-187-46.56-187-104c0-13.67,4.74-26.72,13.36-38.67C35.5,108.5,21.5,48.5,29.5,40.5s119-34,127-34,32.47,12.14,53,21c2.9,1.25,5-2.33,8-1,13.07,5.89,36,5,65.8,16.53,43.2.47,66.2,10.47,66.2,10.47s3,11.2,9,15c11.58,7.33-16.66,29.77-10,34C377.32,120.8,398.5,137.27,398.5,163.5Z" transform="translate(-24 -4.97)"/></g></svg>